<svg xmlns="http://www.w3.org/2000/svg" xmlns:svgjs="http://svgjs.com/svgjs" xmlns:xlink="http://www.w3.org/1999/xlink" width="288" height="288"><svg xmlns="http://www.w3.org/2000/svg" width="288" height="288" enable-background="new 0 0 128 128" viewBox="0 0 128 128"><path fill="#a5a5a5" d="M64,13.3c-20,0-36.2,16.2-36.2,36.2c0,19.3,32.9,62.4,34.3,64.2c0.5,0.6,1.2,0.9,1.9,0.9c0.8,0,1.5-0.3,1.9-0.9
		c1.4-1.8,34.3-45,34.3-64.2C100.2,29.5,84,13.3,64,13.3z M64,108.3c-7.1-9.6-31.4-43.6-31.4-58.7c0-17.3,14.1-31.4,31.4-31.4
		s31.4,14.1,31.4,31.4C95.4,64.7,71.1,98.7,64,108.3z" class="color000 svgShape"/><path fill="#a5a5a5" d="M64,32.6c-9.3,0-16.9,7.6-16.9,16.9S54.7,66.4,64,66.4s16.9-7.6,16.9-16.9S73.3,32.6,64,32.6z M64,61.6
		c-6.7,0-12.1-5.4-12.1-12.1S57.3,37.4,64,37.4s12.1,5.4,12.1,12.1S70.7,61.6,64,61.6z" class="color000 svgShape"/></svg></svg>